<svg width="20" height="20" viewBox="0 0 20 20" fill="none" xmlns="http://www.w3.org/2000/svg">
<path d="M17.3969 5.90705H14.4085C14.4894 5.43749 14.7786 5.17751 15.3655 4.87773L15.916 4.59786C16.9002 4.09249 17.4235 3.52344 17.4235 2.59361C17.4336 2.3253 17.3771 2.05867 17.2589 1.81757C17.1407 1.57648 16.9646 1.36845 16.7463 1.21213C16.2805 0.87301 15.7153 0.698274 15.1393 0.71538C14.6569 0.710137 14.1832 0.844905 13.7758 1.10336C13.3838 1.33516 13.0692 1.67787 12.8718 2.08824L13.7386 2.95507C13.852 2.65871 14.0523 2.40355 14.3133 2.22306C14.5743 2.04256 14.8837 1.94517 15.201 1.94366C15.7429 1.94366 16.0765 2.22354 16.0765 2.61152C16.0765 2.9365 15.914 3.20842 15.2912 3.52344L14.9391 3.69522C14.2896 3.98264 13.7331 4.44542 13.3321 5.0316C13.0048 5.61149 12.8454 6.27103 12.8718 6.93636V7.14395H17.395L17.3969 5.90705ZM16.999 8.57252H12.0494L9.57495 12.8576H14.5232L16.997 17.1426L19.4708 12.8576L16.999 8.57252Z" fill="#FF492C" style="fill:#FF492C;fill:color(display-p3 1.0000 0.2863 0.1725);fill-opacity:1;"/>
<path d="M10.0007 15.714C8.4854 15.714 7.03212 15.1121 5.96061 14.0406C4.88909 12.969 4.28713 11.5158 4.28713 10.0004C4.28713 8.48507 4.88909 7.03178 5.96061 5.96027C7.03212 4.88876 8.4854 4.28679 10.0007 4.28679L11.9572 0.193411C10.3274 -0.131884 8.64214 -0.0458186 7.0539 0.443824C5.46566 0.933467 4.0245 1.81124 2.86073 2.99779C1.69697 4.18434 0.847284 5.64224 0.388517 7.23968C-0.0702501 8.83711 -0.123635 10.5237 0.233188 12.1469C0.590011 13.7702 1.34579 15.2789 2.43219 16.5367C3.51859 17.7945 4.90135 18.7616 6.45545 19.3507C8.00954 19.9398 9.68596 20.1323 11.3331 19.9107C12.9803 19.6892 14.5463 19.0606 15.8895 18.0817L13.7234 14.3299C12.6893 15.2239 11.3677 15.7148 10.0007 15.714Z" fill="#FF492C" style="fill:#FF492C;fill:color(display-p3 1.0000 0.2863 0.1725);fill-opacity:1;"/>
</svg>
